<svg id="Layer_1" enable-background="new 0 0 518.483 518.483" height="512" viewBox="0 0 518.483 518.483" width="512" xmlns="http://www.w3.org/2000/svg"><g><g><path d="m502.093 322.362c.236-.91.463-1.826.688-2.743-.222.917-.455 1.83-.688 2.743z" fill="#afe6ff"/><path d="m255 4.241c-98.131 0-158.574 55.347-158.741 55.441-3.787 17.481-10.374 42.85-10.374 61.465 0 140.833 118.763 254.972 259.596 254.972 60.017 0 115.159-27.944 158.719-62.639.178-1.087 5.8-23.477 5.8-54.239 0-140.832-114.167-255-255-255z" fill="#fbb3a8"/><path d="m345.459 368.921c-140.833 0-255-114.167-255-255 0-18.615 2.013-36.757 5.801-54.239-.006.005-.011.01-.017.014-58.646 46.72-96.243 118.738-96.243 199.545 0 135.447 105.603 246.229 238.966 254.504l38.118-.447c109.172-9.367 198.674-87.533 225.01-190.936.233-.913.466-1.826.688-2.743.106-.436 1.068-4.522 1.418-6.139-43.56 34.696-98.724 55.441-158.741 55.441z" fill="#f291b9"/></g><g><g><path d="m170.223 174.465v44.214h246.722c.536-3.478.822-7.038.822-10.666v-33.548z" fill="#fff"/></g><g><path d="m173.653 218.678c-.536-3.478-.822-7.038-.822-10.666v-33.548h-70.738v33.548c0 3.628.286 7.188.822 10.666z" fill="#e1faff"/></g><path d="m238.967 513.725c5.304.329 10.646.516 16.033.516 8.084 0 16.076-.389 23.967-1.125v-152.492h-40z" fill="#e1faff"/><g><g><g><g><g><path d="m216.261 176.203c-2.35-16.927-14.532-29.989-29.596-30.436-15.601-.463-28.919 12.764-31.671 30.436z" fill="#fa503c"/></g></g><g><g><path d="m108.088 80.85c15.851 5.583 41.575 29.92 54.422 62.421 3.642 8.911 6.513 18.174 8.685 27.622l4.26-.869c-1.749-9.748-4.228-19.401-7.549-28.805-11.877-34.867-37.418-61.648-56.084-69.702z" fill="#a55a3c"/></g></g><g><g><path d="m191.72 176.203c-.194-.502-.392-1.004-.606-1.503-8-18.692-27.285-28.368-43.073-21.61-9.288 3.975-15.292 12.754-17.036 23.113z" fill="#e20a62"/></g></g><g><g><path d="m155.303 174.521c-.454 2.3-.74 4.677-.813 7.122-.603 20.324 12.823 37.212 29.989 37.722s31.571-15.553 32.174-35.876c.092-3.086-.158-6.086-.678-8.968z" fill="#fa735f"/></g></g><g><g><path d="m191.034 174.521h-59.694c-1.667 7.679-.951 16.352 2.6 24.65 8 18.692 27.285 28.368 43.073 21.61 15.788-6.757 22.102-27.389 14.101-46.081-.025-.061-.053-.119-.08-.179z" fill="#fa503c"/></g></g></g></g></g><g><path d="m244.385 390.701 48.483 16.034c39.273-13.632 67.466-50.962 67.466-94.876 0-.362-.002-.723-.006-1.084-.189-17.846 9.206-34.226 24.395-43.598 17.385-10.727 29.685-28.898 32.453-50.072h-245.632s-.672 45.314-1.321 47.534c11.794 22.93 49.628 117.534 74.162 126.062z" fill="#c2fc51"/></g><g><path d="m230.33 315.511c-.062-1.741-.08-3.472-.053-5.193.266-17.682-9.351-33.855-24.401-43.141-17.385-10.727-29.685-28.898-32.453-50.072h-70.738c2.768 21.174 15.068 39.345 32.453 50.072 15.049 9.286 24.667 25.46 24.401 43.141-.026 1.721-.008 3.452.053 5.193 1.921 54.14 47.221 97.304 101.393 96.746 12.108-.125 23.701-2.395 34.42-6.444-36.771-13.922-63.607-48.902-65.075-90.302z" fill="#97d729"/></g><g fill="#97d729"><circle cx="280.438" cy="364.844" r="14.967"/><circle cx="307.256" cy="301.604" r="15.226"/><circle cx="251.481" cy="257.625" r="12.514"/></g><g><circle cx="411.656" cy="170.894" fill="#ffd23c" r="106.827"/><circle cx="411.656" cy="170.894" fill="#fff5aa" r="89.174"/><g fill="#ffe65a"><path d="m389.929 179.894h-41.286c-3.611 0-6.264 3.368-5.451 6.887 1.769 7.658 4.787 14.836 8.832 21.308 1.909 3.055 6.165 3.544 8.713.996z"/><path d="m395.769 102.43c-7.658 1.769-14.835 4.787-21.308 8.832-3.055 1.909-3.544 6.165-.996 8.713l29.191 29.191v-41.285c0-3.611-3.369-6.264-6.887-5.451z"/><path d="m389.928 161.894-29.191-29.191c-2.547-2.547-6.804-2.059-8.713.996-4.045 6.472-7.063 13.65-8.832 21.308-.813 3.519 1.84 6.887 5.451 6.887z"/><path d="m420.656 107.881v41.286l29.191-29.191c2.547-2.547 2.059-6.804-.996-8.713-6.473-4.045-13.65-7.064-21.308-8.832-3.519-.814-6.887 1.839-6.887 5.45z"/><path d="m433.383 179.894 29.191 29.191c2.547 2.547 6.804 2.059 8.713-.996 4.045-6.473 7.064-13.65 8.832-21.308.813-3.519-1.84-6.887-5.451-6.887z"/><path d="m402.656 192.622-29.191 29.191c-2.547 2.547-2.059 6.804.996 8.713 6.472 4.045 13.65 7.063 21.308 8.832 3.519.813 6.887-1.84 6.887-5.451z"/><path d="m433.384 161.894h41.285c3.611 0 6.264-3.368 5.451-6.887-1.769-7.658-4.787-14.835-8.832-21.308-1.909-3.055-6.165-3.544-8.713-.996z"/><path d="m420.656 192.621v41.285c0 3.611 3.368 6.264 6.887 5.451 7.658-1.769 14.835-4.787 21.308-8.832 3.055-1.909 3.544-6.165.996-8.713z"/></g></g></g></g></svg>